<svg width="20" height="20" viewBox="0 0 20 20" fill="none" xmlns="http://www.w3.org/2000/svg">
  <g id="marker-pin-01">
    <path id="Union" fill-rule="evenodd" clip-rule="evenodd" d="M5.75735 4.34319C5.36683 3.95266 4.73367 3.95266 4.34314 4.34319C3.95262 4.73371 3.95262 5.36688 4.34314 5.7574L8.58579 10L4.34314 14.2427C3.95262 14.6332 3.95262 15.2664 4.34314 15.6569C4.73366 16.0474 5.36683 16.0474 5.75735 15.6569L10 11.4143L14.2426 15.6569C14.6332 16.0474 15.2663 16.0474 15.6568 15.6569C16.0474 15.2664 16.0474 14.6332 15.6568 14.2427L11.4142 10L15.6568 5.75741C16.0474 5.36689 16.0474 4.73372 15.6568 4.3432C15.2663 3.95267 14.6332 3.95268 14.2426 4.3432L10 8.58583L5.75735 4.34319Z" fill="black"/>
  </g>
</svg>
